<svg width="254" height="387" viewBox="0 0 254 387" fill="none" xmlns="http://www.w3.org/2000/svg">
<path fill-rule="evenodd" clip-rule="evenodd" d="M-27.0109 177.124L-26.9205 178.613L-26.8829 180.102L-26.8977 181.592L-26.9644 183.086L-27.0822 184.586L-27.25 186.094L-27.4662 187.612L-27.7293 189.14L-28.0371 190.683L-28.3875 192.24L-28.778 193.814L-29.2059 195.405L-29.6684 197.016L-30.1627 198.647L-30.686 200.3L-31.2354 201.975L-31.808 203.673L-32.4009 205.396L-33.0111 207.142L-33.6356 208.914L-34.2715 210.711L-34.9158 212.534L-35.5654 214.383L-36.2175 216.257L-36.8692 218.157L-37.5174 220.083L-38.1593 222.033L-38.7922 224.008L-39.4131 226.007L-40.0196 228.03L-40.6089 230.076L-41.1785 232.144L-41.7262 234.232L-42.2494 236.342L-42.7461 238.47L-43.2143 240.617L-43.652 242.781L-44.0574 244.961L-44.429 247.157L-44.7649 249.366L-45.0636 251.588L-45.3238 253.821L-45.5439 256.064L-45.7226 258.316L-45.8587 260.576L-45.9509 262.841L-45.9984 265.111L-46 267.384L-45.9549 269.658L-45.8623 271.933L-45.7216 274.206L-45.5321 276.477L-45.2934 278.744L-45.0051 281.005L-44.667 283.259L-44.2787 285.505L-43.8404 287.742L-43.3519 289.967L-42.8135 292.181L-42.2252 294.381L-41.5875 296.568L-40.9006 298.738L-40.165 300.893L-39.3812 303.03L-38.5499 305.148L-37.6717 307.248L-36.7473 309.327L-35.7775 311.386L-34.7631 313.424L-33.7051 315.44L-32.6042 317.434L-31.4616 319.405L-30.2781 321.352L-29.0546 323.276L-27.7924 325.177L-26.4924 327.053L-25.1554 328.905L-23.7828 330.733L-22.3754 332.536L-20.9342 334.315L-19.4602 336.069L-17.9545 337.799L-16.418 339.504L-14.8516 341.185L-13.2562 342.841L-11.6327 344.474L-9.9819 346.082L-8.30465 347.666L-6.60165 349.225L-4.87368 350.761L-3.12145 352.273L-1.34553 353.761L0.453421 355.225L2.27483 356.665L4.11818 358.08L5.98299 359.472L7.86872 360.839L9.77503 362.182L11.7014 363.5L13.6476 364.792L15.6131 366.06L17.5978 367.301L19.6012 368.516L21.623 369.704L23.663 370.865L25.7208 371.997L27.7962 373.101L29.889 374.176L31.9991 375.219L34.1264 376.23L36.2708 377.207L38.4322 378.148L40.6106 379.052L42.8058 379.914L45.0176 380.735L47.2459 381.51L49.4902 382.238L51.7501 382.915L54.0252 383.54L56.3148 384.109L58.6182 384.62L60.9344 385.07L63.2626 385.457L65.6016 385.779L67.9502 386.032L70.3072 386.215L72.671 386.326L75.0401 386.362L77.4128 386.322L79.7875 386.205L82.1622 386.009L84.5351 385.732L86.9041 385.375L89.2673 384.935L91.6225 384.413L93.9677 383.808L96.3006 383.12L98.6191 382.35L100.921 381.497L103.204 380.562L105.467 379.546L107.706 378.45L109.92 377.275L112.107 376.023L114.265 374.695L116.392 373.293L118.485 371.819L120.545 370.277L122.567 368.667L124.552 366.993L126.498 365.258L128.403 363.466L130.267 361.618L132.087 359.718L133.864 357.771L135.597 355.78L137.285 353.748L138.927 351.679L140.524 349.577L142.075 347.446L143.581 345.291L145.041 343.115L146.456 340.922L147.827 338.717L149.154 336.503L150.439 334.284L151.682 332.065L152.884 329.85L154.048 327.642L155.174 325.444L156.264 323.262L157.32 321.098L158.344 318.956L159.337 316.838L160.302 314.749L161.242 312.69L162.157 310.666L163.052 308.678L163.927 306.728L164.786 304.82L165.63 302.954L166.463 301.134L167.287 299.359L168.104 297.632L168.916 295.953L169.727 294.324L170.538 292.745L171.353 291.217L172.172 289.739L172.998 288.311L173.834 286.934L174.681 285.607L175.54 284.328L176.415 283.098L177.306 281.914L178.215 280.776L179.143 279.682L180.091 278.631L181.061 277.62L182.052 276.647L183.066 275.711L184.103 274.809L185.164 273.939L186.248 273.097L187.355 272.283L188.485 271.492L189.637 270.722L190.811 269.971L192.006 269.235L193.221 268.511L194.454 267.798L195.705 267.092L196.972 266.39L198.253 265.689L199.547 264.988L200.852 264.284L202.167 263.575L203.489 262.857L204.818 262.13L206.15 261.392L207.485 260.64L208.821 259.873L210.156 259.09L211.488 258.29L212.817 257.471L214.14 256.633L215.458 255.775L216.768 254.897L218.07 253.998L219.363 253.078L220.646 252.137L221.919 251.175L223.179 250.19L224.426 249.184L225.66 248.155L226.879 247.105L228.082 246.032L229.269 244.938L230.44 243.821L231.592 242.683L232.725 241.523L233.839 240.341L234.932 239.137L236.004 237.913L237.054 236.667L238.081 235.401L239.084 234.114L240.063 232.807L241.016 231.481L241.943 230.135L242.843 228.769L243.715 227.386L244.558 225.983L245.371 224.564L246.154 223.126L246.905 221.672L247.624 220.202L248.309 218.716L248.96 217.215L249.576 215.699L250.155 214.169L250.698 212.626L251.202 211.071L251.668 209.504L252.094 207.926L252.479 206.337L252.822 204.74L253.124 203.134L253.382 201.52L253.596 199.9L253.765 198.274L253.89 196.643L253.968 195.009L254 193.373L253.985 191.735L253.923 190.097L253.813 188.46L253.656 186.825L253.45 185.193L253.197 183.566L252.895 181.944L252.546 180.329L252.15 178.722L251.706 177.124L251.216 175.536L250.68 173.96L250.098 172.397L249.473 170.847L248.804 169.312L248.094 167.792L247.342 166.289L246.551 164.804L245.723 163.337L244.858 161.89L243.959 160.462L243.028 159.054L242.066 157.668L241.076 156.302L240.058 154.959L239.015 153.637L237.948 152.338L236.86 151.062L235.75 149.808L234.622 148.578L233.475 147.37L232.312 146.186L231.135 145.025L229.944 143.887L228.741 142.771L227.527 141.679L226.304 140.609L225.073 139.562L223.836 138.537L222.593 137.533L221.347 136.551L220.098 135.589L218.848 134.648L217.599 133.726L216.351 132.824L215.105 131.94L213.863 131.074L212.626 130.225L211.395 129.392L210.17 128.575L208.954 127.773L207.746 126.984L206.549 126.208L205.363 125.444L204.19 124.691L203.03 123.947L201.884 123.212L200.755 122.483L199.642 121.76L198.547 121.041L197.47 120.324L196.414 119.609L195.377 118.894L194.362 118.176L193.37 117.455L192.4 116.728L191.453 115.994L190.53 115.252L189.632 114.499L188.759 113.734L187.91 112.955L187.087 112.161L186.289 111.349L185.516 110.518L184.768 109.667L184.045 108.794L183.347 107.897L182.672 106.975L182.021 106.026L181.393 105.049L180.786 104.043L180.201 103.007L179.635 101.939L179.089 100.839L178.56 99.7047L178.047 98.5366L177.55 97.3334L177.066 96.0948L176.595 94.8201L176.133 93.5091L175.681 92.1615L175.236 90.7772L174.795 89.3562L174.359 87.8988L173.924 86.4051L173.489 84.8756L173.051 83.3108L172.61 81.7114L172.162 80.0781L171.707 78.4118L171.241 76.7135L170.764 74.9844L170.273 73.2256L169.767 71.4385L169.243 69.6245L168.7 67.7851L168.137 65.9219L167.55 64.0366L166.94 62.1309L166.304 60.2066L165.641 58.2656L164.949 56.3098L164.227 54.3412L163.474 52.3619L162.689 50.3739L161.87 48.3792L161.016 46.3801L160.127 44.3789L159.202 42.3782L158.239 40.3809L157.237 38.39L156.197 36.4086L155.116 34.4402L153.994 32.4883L152.831 30.5565L151.627 28.6484L150.38 26.7681L149.091 24.9192L147.76 23.1058L146.386 21.3319L144.971 19.6014L143.514 17.9183L142.017 16.2867L140.479 14.7106L138.902 13.1939L137.287 11.7405L135.635 10.3545L133.947 9.03965L132.225 7.79981L130.47 6.63877L128.686 5.56031L126.872 4.56813L125.032 3.66583L123.168 2.85667L121.282 2.14359L119.377 1.52915L117.456 1.01557L115.522 0.604639L113.576 0.297791L111.623 0.0960397L109.665 -3.83686e-06L107.706 0.00986245L105.748 0.125431L103.794 0.346084L101.848 0.670803L99.912 1.09817L97.9892 1.62636L96.0823 2.25321L94.1939 2.97613L92.3266 3.79222L90.4827 4.69822L88.6643 5.69055L86.8735 6.76533L85.1121 7.91839L83.3818 9.1453L81.6839 10.4414L80.0196 11.8018L78.3898 13.2214L76.7954 14.695L75.2367 16.2171L73.714 17.7824L72.2272 19.3852L70.7761 21.0199L69.3602 22.6808L67.9786 24.3623L66.6305 26.0587L65.3145 27.7644L64.0292 29.474L62.773 31.182L61.5438 32.8831L60.3398 34.5723L59.1585 36.2446L57.9977 37.8952L56.8546 39.5198L55.7266 41.1139L54.6109 42.6736L53.5045 44.1951L52.4043 45.6751L51.3075 47.1105L50.2107 48.4983L49.1108 49.8362L48.0048 51.1219L46.8895 52.3539L45.7618 53.5305L44.6186 54.6507L43.457 55.7138L42.2742 56.7194L41.0673 57.6675L39.8339 58.5585L38.5714 59.3929L37.2776 60.1719L35.9502 60.8967L34.5876 61.569L33.1879 62.1907L31.7498 62.764L30.2719 63.2915L28.7534 63.7758L27.1934 64.22L25.5915 64.6272L23.9476 65.0008L22.2616 65.3444L20.534 65.6618L18.7657 65.9571L16.9579 66.2347L15.1123 66.4991L13.231 66.7553L11.3164 67.008L9.37156 67.2624L7.39959 67.5234L5.40407 67.7962L3.38893 68.0857L1.35826 68.3968L-0.683474 68.7344L-2.73165 69.1029L-4.78142 69.5068L-6.82784 69.9502L-8.86583 70.4371L-10.8902 70.9711L-12.8957 71.5555L-14.8772 72.1931L-16.8295 72.8867L-18.7475 73.6384L-20.6262 74.4501L-22.4609 75.3231L-24.247 76.2587L-25.98 77.2573L-27.6559 78.3193L-29.2709 79.4445L-30.8212 80.6326L-32.3035 81.8828L-33.7146 83.1942L-35.0515 84.5656L-36.3115 85.9954L-37.4923 87.482L-38.5919 89.0232L-39.6084 90.617L-40.5405 92.2609L-41.387 93.9523L-42.1473 95.6885L-42.8209 97.4665L-43.4077 99.2833L-43.908 101.136L-44.3226 103.021L-44.6522 104.935L-44.8984 106.874L-45.0627 108.837L-45.1471 110.818L-45.1539 112.814L-45.0856 114.823L-44.9453 116.841L-44.7359 118.865L-44.461 120.891L-44.1242 122.916L-43.7294 124.939L-43.2805 126.955L-42.7821 128.962L-42.2382 130.959L-41.6537 132.941L-41.0331 134.908L-40.3812 136.858L-39.7028 138.788L-39.0028 140.698L-38.2861 142.586L-37.5575 144.451L-36.8219 146.292L-36.0842 148.108L-35.3489 149.9L-34.6208 151.667L-33.9043 153.408L-33.2038 155.125L-32.5235 156.818L-31.8674 158.487L-31.2392 160.133L-30.6425 161.757L-30.0808 163.36L-29.557 164.945L-29.074 166.511L-28.6342 168.061L-28.2401 169.597L-27.8935 171.12L-27.5962 172.632L-27.3493 174.135L-27.154 175.632L-27.0109 177.124Z" fill="url(#paint0_linear_210_68)"/>
<defs>
<linearGradient id="paint0_linear_210_68" x1="104" y1="-3.98746e-06" x2="104" y2="386.362" gradientUnits="userSpaceOnUse">
<stop offset="0.9999" stop-color="#4285F3"/>
<stop offset="1" stop-color="#3B12A8"/>
</linearGradient>
</defs>
</svg>
