<svg width="254" height="387" viewBox="0 0 254 387" fill="none" xmlns="http://www.w3.org/2000/svg">
<path fill-rule="evenodd" clip-rule="evenodd" d="M281.011 177.124L280.921 178.613L280.883 180.102L280.898 181.592L280.964 183.086L281.082 184.586L281.25 186.094L281.466 187.612L281.729 189.14L282.037 190.683L282.388 192.24L282.778 193.814L283.206 195.405L283.668 197.016L284.163 198.647L284.686 200.3L285.235 201.975L285.808 203.673L286.401 205.396L287.011 207.142L287.636 208.914L288.271 210.711L288.916 212.534L289.565 214.383L290.218 216.257L290.869 218.157L291.517 220.083L292.159 222.033L292.792 224.008L293.413 226.007L294.02 228.03L294.609 230.076L295.179 232.144L295.726 234.233L296.249 236.342L296.746 238.47L297.214 240.617L297.652 242.781L298.057 244.961L298.429 247.157L298.765 249.366L299.064 251.588L299.324 253.821L299.544 256.064L299.723 258.316L299.859 260.576L299.951 262.841L299.998 265.111L300 267.384L299.955 269.658L299.862 271.933L299.722 274.206L299.532 276.477L299.293 278.744L299.005 281.005L298.667 283.259L298.279 285.505L297.84 287.742L297.352 289.967L296.814 292.181L296.225 294.381L295.587 296.568L294.901 298.738L294.165 300.893L293.381 303.03L292.55 305.148L291.672 307.248L290.747 309.327L289.778 311.386L288.763 313.424L287.705 315.44L286.604 317.434L285.462 319.405L284.278 321.352L283.055 323.276L281.792 325.177L280.492 327.053L279.155 328.905L277.783 330.733L276.375 332.536L274.934 334.315L273.46 336.069L271.955 337.799L270.418 339.504L268.852 341.185L267.256 342.841L265.633 344.474L263.982 346.082L262.305 347.666L260.602 349.225L258.874 350.761L257.121 352.273L255.346 353.761L253.547 355.225L251.725 356.665L249.882 358.08L248.017 359.472L246.131 360.839L244.225 362.182L242.299 363.5L240.352 364.792L238.387 366.06L236.402 367.301L234.399 368.516L232.377 369.704L230.337 370.865L228.279 371.997L226.204 373.101L224.111 374.176L222.001 375.219L219.874 376.23L217.729 377.207L215.568 378.148L213.389 379.052L211.194 379.914L208.982 380.735L206.754 381.51L204.51 382.238L202.25 382.915L199.975 383.54L197.685 384.109L195.382 384.62L193.066 385.07L190.737 385.457L188.398 385.779L186.05 386.032L183.693 386.215L181.329 386.326L178.96 386.362L176.587 386.323L174.213 386.205L171.838 386.009L169.465 385.732L167.096 385.375L164.733 384.935L162.377 384.413L160.032 383.808L157.699 383.121L155.381 382.35L153.079 381.497L150.796 380.562L148.533 379.546L146.294 378.45L144.08 377.275L141.893 376.023L139.735 374.695L137.608 373.293L135.515 371.819L133.455 370.277L131.433 368.667L129.448 366.993L127.502 365.258L125.597 363.466L123.733 361.618L121.913 359.719L120.136 357.771L118.403 355.78L116.715 353.748L115.073 351.679L113.476 349.577L111.925 347.446L110.419 345.291L108.959 343.115L107.544 340.922L106.173 338.717L104.846 336.503L103.561 334.284L102.318 332.065L101.116 329.85L99.9524 327.642L98.8264 325.445L97.7362 323.262L96.6802 321.098L95.6565 318.956L94.663 316.838L93.6976 314.749L92.7582 312.69L91.8425 310.666L90.9482 308.678L90.073 306.728L89.2143 304.82L88.3698 302.954L87.5369 301.134L86.7132 299.359L85.8963 297.632L85.0836 295.953L84.2728 294.324L83.4615 292.745L82.6474 291.217L81.8283 289.739L81.0019 288.311L80.1663 286.934L79.3194 285.607L78.4595 284.328L77.5848 283.098L76.6938 281.914L75.7849 280.776L74.8569 279.682L73.9087 278.631L72.9393 277.62L71.9479 276.647L70.9339 275.711L69.8967 274.809L68.8362 273.939L67.7524 273.097L66.6453 272.283L65.5153 271.492L64.3629 270.722L63.1889 269.971L61.9939 269.235L60.7792 268.511L59.5458 267.798L58.295 267.092L57.0282 266.39L55.747 265.689L54.453 264.988L53.1477 264.284L51.833 263.575L50.5105 262.857L49.1822 262.13L47.8496 261.392L46.5147 260.64L45.179 259.873L43.8442 259.09L42.5118 258.29L41.1832 257.471L39.8596 256.633L38.5421 255.775L37.2318 254.897L35.9297 253.998L34.6366 253.078L33.3535 252.137L32.0815 251.175L30.8213 250.19L29.574 249.184L28.3404 248.155L27.1214 247.105L25.9178 246.032L24.7305 244.938L23.5604 243.821L22.4082 242.683L21.2749 241.523L20.1612 240.341L19.0679 239.137L17.9959 237.913L16.946 236.667L15.919 235.401L14.9158 234.114L13.9371 232.807L12.9838 231.481L12.0568 230.135L11.1569 228.769L10.285 227.386L9.44191 225.984L8.6286 224.564L7.84592 223.126L7.09479 221.672L6.37612 220.202L5.69083 218.716L5.03986 217.215L4.42412 215.699L3.84454 214.169L3.30206 212.626L2.79758 211.071L2.33201 209.504L1.90625 207.926L1.52117 206.337L1.17762 204.74L0.876433 203.134L0.618389 201.52L0.404242 199.9L0.234702 198.274L0.110425 196.643L0.0320126 195.009L3.93344e-06 193.373L0.0148686 191.735L0.0770021 190.097L0.186719 188.46L0.344249 186.825L0.549727 185.193L0.803193 183.566L1.10458 181.944L1.45372 180.329L1.85033 178.722L2.29401 177.124L2.78423 175.536L3.32034 173.96L3.90159 172.397L4.52706 170.847L5.19573 169.312L5.90643 167.792L6.65788 166.289L7.44865 164.804L8.27719 163.337L9.14183 161.89L10.0408 160.462L10.9721 159.054L11.9339 157.668L12.9245 156.302L13.942 154.959L14.9849 153.637L16.0515 152.338L17.1403 151.062L18.2498 149.808L19.3784 148.578L20.5249 147.37L21.6876 146.186L22.8652 145.025L24.0562 143.887L25.2593 142.771L26.4731 141.679L27.6961 140.609L28.927 139.562L30.1644 138.537L31.4069 137.533L32.6531 136.551L33.9018 135.589L35.1515 134.648L36.4011 133.726L37.6493 132.824L38.8949 131.94L40.1368 131.074L41.374 130.225L42.6054 129.392L43.8299 128.575L45.0464 127.773L46.2538 126.984L47.451 126.208L48.6369 125.444L49.8103 124.691L50.9703 123.947L52.1156 123.212L53.2452 122.483L54.3581 121.76L55.4533 121.041L56.5297 120.324L57.5865 119.609L58.6227 118.894L59.6376 118.176L60.6304 117.455L61.6003 116.728L62.5469 115.994L63.4695 115.252L64.3677 114.499L65.2412 113.734L66.0897 112.955L66.913 112.161L67.711 111.349L68.4839 110.518L69.2316 109.667L69.9546 108.794L70.6531 107.897L71.3277 106.975L71.9788 106.026L72.6073 105.049L73.2138 104.043L73.7993 103.007L74.3648 101.939L74.9114 100.839L75.4402 99.7047L75.9527 98.5366L76.45 97.3334L76.9338 96.0948L77.4055 94.8201L77.8667 93.5091L78.3191 92.1615L78.7645 90.7772L79.2045 89.3562L79.6411 87.8988L80.0761 86.4051L80.5114 84.8756L80.9488 83.3108L81.3903 81.7114L81.8379 80.0781L82.2934 78.4118L82.7588 76.7135L83.2359 74.9844L83.7268 73.2256L84.2332 71.4386L84.7569 69.6245L85.2997 67.7851L85.8634 65.9219L86.4497 64.0366L87.06 62.1309L87.6961 60.2066L88.3594 58.2656L89.0512 56.3098L89.773 54.3413L90.526 52.3619L91.3114 50.3739L92.1303 48.3792L92.9837 46.3801L93.8726 44.3789L94.7981 42.3782L95.7612 40.3809L96.7626 38.39L97.8034 36.4086L98.8842 34.4402L100.006 32.4883L101.169 30.5565L102.373 28.6484L103.62 26.7681L104.909 24.9192L106.24 23.1058L107.614 21.3319L109.029 19.6014L110.486 17.9183L111.983 16.2867L113.521 14.7106L115.098 13.1939L116.713 11.7405L118.366 10.3545L120.053 9.03966L121.775 7.79981L123.53 6.63877L125.314 5.56031L127.128 4.56814L128.968 3.66583L130.832 2.85667L132.718 2.14359L134.623 1.52915L136.544 1.01557L138.478 0.60464L140.424 0.297792L142.377 0.0960406L144.335 -2.93594e-06L146.294 0.00986336L148.252 0.125431L150.206 0.346085L152.152 0.670804L154.088 1.09817L156.011 1.62637L157.918 2.25321L159.806 2.97613L161.673 3.79222L163.517 4.69822L165.336 5.69055L167.127 6.76533L168.888 7.91839L170.618 9.1453L172.316 10.4414L173.98 11.8018L175.61 13.2214L177.205 14.695L178.763 16.2171L180.286 17.7824L181.773 19.3852L183.224 21.0199L184.64 22.6808L186.021 24.3623L187.37 26.0587L188.685 27.7644L189.971 29.474L191.227 31.182L192.456 32.8831L193.66 34.5723L194.841 36.2446L196.002 37.8952L197.145 39.5198L198.273 41.1139L199.389 42.6736L200.496 44.1951L201.596 45.6751L202.693 47.1105L203.789 48.4983L204.889 49.8362L205.995 51.1219L207.111 52.3539L208.238 53.5305L209.381 54.6507L210.543 55.7138L211.726 56.7194L212.933 57.6675L214.166 58.5585L215.429 59.393L216.722 60.1719L218.05 60.8967L219.412 61.569L220.812 62.1907L222.25 62.764L223.728 63.2915L225.247 63.7758L226.807 64.22L228.409 64.6272L230.052 65.0008L231.738 65.3444L233.466 65.6618L235.234 65.9571L237.042 66.2347L238.888 66.4991L240.769 66.7553L242.684 67.008L244.628 67.2624L246.6 67.5235L248.596 67.7962L250.611 68.0857L252.642 68.3969L254.683 68.7344L256.732 69.1029L258.781 69.5068L260.828 69.9502L262.866 70.4371L264.89 70.9711L266.896 71.5555L268.877 72.1931L270.829 72.8867L272.747 73.6384L274.626 74.4501L276.461 75.3232L278.247 76.2587L279.98 77.2573L281.656 78.3193L283.271 79.4445L284.821 80.6326L286.304 81.8828L287.715 83.1942L289.051 84.5656L290.311 85.9954L291.492 87.482L292.592 89.0232L293.608 90.617L294.54 92.2609L295.387 93.9523L296.147 95.6885L296.821 97.4665L297.408 99.2833L297.908 101.136L298.323 103.021L298.652 104.935L298.898 106.874L299.063 108.837L299.147 110.818L299.154 112.814L299.086 114.823L298.945 116.841L298.736 118.865L298.461 120.891L298.124 122.916L297.729 124.939L297.281 126.955L296.782 128.962L296.238 130.959L295.654 132.941L295.033 134.908L294.381 136.858L293.703 138.789L293.003 140.698L292.286 142.586L291.557 144.451L290.822 146.292L290.084 148.108L289.349 149.9L288.621 151.667L287.904 153.408L287.204 155.125L286.524 156.818L285.867 158.487L285.239 160.133L284.643 161.757L284.081 163.36L283.557 164.945L283.074 166.511L282.634 168.061L282.24 169.597L281.894 171.12L281.596 172.632L281.349 174.135L281.154 175.632L281.011 177.124Z" fill="#34A853"/>
</svg>
