<svg width="138" height="92" viewBox="0 0 138 92" fill="none" xmlns="http://www.w3.org/2000/svg">
<g clip-path="url(#clip0_210_71)">
<path d="M137.148 50.0028C137.076 50.1139 136.967 50.2251 136.931 50.3681C135.914 55.0221 133.698 58.183 130.538 60.1526C130.502 60.1685 130.465 60.1844 130.429 60.2003C130.247 60.2797 130.048 60.3432 129.866 60.4226C127.342 61.5504 124.836 61.5186 122.384 60.1367C121.349 59.549 120.368 58.7231 119.388 57.9447C116.01 55.2762 112.65 52.576 109.272 49.8916C107.638 48.5891 105.985 47.3025 104.351 46C102.607 44.5863 100.864 43.1568 99.1204 41.759C94.326 37.9309 89.5316 34.1188 84.7554 30.2749C83.4115 29.1947 82.0132 28.1623 80.8146 26.8122C78.3448 24.0483 77.019 20.3791 76.9101 15.9634C76.7648 10.3722 78.254 5.98826 81.3412 2.9703C85.0642 -0.68301 89.7859 -0.76243 93.7267 2.33495C99.4836 6.86188 105.204 11.5 110.925 16.0746C116.064 20.1885 121.222 24.2866 126.361 28.4005C128.431 30.0525 130.538 31.6409 132.554 33.4199C134.751 35.3577 136.186 38.1692 136.931 41.6637C136.967 41.8066 137.076 41.9019 137.148 42.029L137.148 50.0028Z" fill="#0E9C58"/>
<path d="M33.0521 46C35.3222 47.8266 37.5923 49.6533 39.8623 51.4641C43.7487 54.5773 47.635 57.6747 51.5032 60.7721C52.8471 61.8363 54.191 62.8688 55.4985 63.9965C59.3849 67.3639 61.2554 73.9876 60.2566 80.1982C59.1851 86.7583 54.99 91.6664 50.0685 91.9682C47.6713 92.1112 45.5102 91.174 43.4581 89.5062C38.2642 85.297 33.0158 81.1671 27.8037 76.9896C22.8096 73.0028 17.8336 69 12.8576 65.0131C10.2788 62.9482 7.66373 60.9627 5.12126 58.8342C2.72408 56.817 1.14411 53.8308 0.417692 50.0663C-0.417691 45.8094 2.23716e-07 41.7431 1.67077 37.9468C2.90568 35.1354 4.70357 33.1975 6.84651 31.8315C6.9918 31.768 7.15524 31.7362 7.30052 31.6568C10.1699 30.2907 12.9848 30.4337 15.7088 32.2604C17.1254 33.2134 18.4692 34.3729 19.8313 35.453C22.7188 37.7562 25.6063 40.0912 28.512 42.3943C30.0193 43.6015 31.5448 44.7928 33.0703 45.9841L33.0521 46Z" fill="#4285F3"/>
<path d="M33.36 45.7617C33.1784 45.9206 32.9424 45.9206 32.7607 45.7617C31.3442 44.6498 29.9277 43.538 28.5112 42.4102C25.6237 40.107 22.7361 37.7721 19.8305 35.4689C18.4684 34.3888 17.1246 33.2293 15.708 32.2762C12.984 30.4496 10.1509 30.3066 7.29972 31.6726C7.15443 31.7362 6.99099 31.7838 6.8457 31.8474C7.86269 31.0055 8.87968 30.1478 9.89667 29.3377C13.7104 26.2721 17.5241 23.2065 21.3378 20.1567C24.4432 17.6788 27.5487 15.2327 30.636 12.7548C34.4497 9.70509 38.2634 6.63948 42.0771 3.58976C43.766 2.2555 45.4005 0.746526 47.3618 0.285891C51.8293 -0.730684 55.5703 1.09597 58.3126 6.09943C61.4907 11.8971 61.2546 19.5532 57.8767 25.1443C56.9142 26.7486 55.6793 27.8922 54.3718 28.9247C51.6114 31.1008 48.8873 33.3087 46.145 35.5007C42.858 38.1215 39.5709 40.7424 36.302 43.3632C35.3214 44.1574 34.3407 44.9675 33.36 45.7617Z" fill="#E94336"/>
<path d="M104.077 46.2541C104.259 46.0953 104.495 46.0953 104.676 46.2541C106.22 47.4613 107.764 48.6844 109.307 49.9075C112.685 52.5918 116.045 55.2921 119.423 57.9606C120.403 58.7389 121.366 59.5649 122.419 60.1526C124.871 61.5186 127.377 61.5663 129.901 60.4385C130.101 60.3432 130.301 60.2797 130.519 60.2003C129.575 60.9945 128.63 61.8204 127.668 62.5987C124.235 65.3467 120.785 68.0787 117.353 70.8266C114.429 73.1457 111.523 75.4807 108.599 77.8156C104.676 80.9606 100.754 84.1057 96.813 87.2348C95.3057 88.4261 93.8347 89.7127 92.2547 90.7134C86.5886 94.3349 79.6513 90.2051 77.5628 82.0407C75.8013 75.2106 77.69 67.5387 82.0848 63.9171C85.1721 61.3598 88.3139 58.9296 91.4193 56.4517C95.0151 53.5767 98.5927 50.7017 102.17 47.8267C102.806 47.3184 103.442 46.7942 104.077 46.2859L104.077 46.2541Z" fill="#FABB09"/>
</g>
<defs>
<clipPath id="clip0_210_71">
<rect width="137.148" height="92" fill="white"/>
</clipPath>
</defs>
</svg>
