<svg width="242" height="303" viewBox="0 0 242 303" fill="none" xmlns="http://www.w3.org/2000/svg">
<path fill-rule="evenodd" clip-rule="evenodd" d="M-49.0329 119.281L-49.3921 121.146L-49.7861 123.021L-50.2133 124.911L-50.6719 126.816L-51.1597 128.739L-51.674 130.681L-52.2123 132.644L-52.7716 134.63L-53.3491 136.639L-53.9418 138.673L-54.5466 140.733L-55.1606 142.82L-55.7804 144.935L-56.4028 147.078L-57.0243 149.25L-57.6416 151.45L-58.2511 153.679L-58.8492 155.937L-59.4323 158.223L-59.9966 160.537L-60.5385 162.878L-61.0542 165.245L-61.54 167.637L-61.9922 170.053L-62.4073 172.491L-62.7818 174.949L-63.1122 177.426L-63.3952 179.92L-63.6279 182.428L-63.8073 184.949L-63.9308 187.48L-63.9959 190.019L-64.0006 192.564L-63.9429 195.111L-63.8213 197.659L-63.6344 200.206L-63.3807 202.748L-63.0593 205.283L-62.6692 207.81L-62.2098 210.324L-61.6805 212.825L-61.0811 215.309L-60.4116 217.775L-59.672 220.219L-58.8628 222.64L-57.9843 225.036L-57.0375 227.405L-56.0232 229.745L-54.9425 232.054L-53.7967 234.331L-52.5871 236.575L-51.3154 238.783L-49.9833 240.955L-48.5925 243.091L-47.1449 245.189L-45.6427 247.249L-44.0877 249.27L-42.4822 251.252L-40.8283 253.195L-39.1282 255.099L-37.384 256.964L-35.598 258.791L-33.7721 260.579L-31.9087 262.329L-30.0097 264.043L-28.0771 265.72L-26.1128 267.361L-24.1186 268.968L-22.0962 270.54L-20.0472 272.08L-17.9731 273.586L-15.8754 275.061L-13.7551 276.505L-11.6136 277.919L-9.45172 279.303L-7.27043 280.658L-5.07049 281.985L-2.85255 283.283L-0.617197 284.553L1.63517 285.795L3.90416 287.008L6.1895 288.193L8.49103 289.348L10.8087 290.474L13.1427 291.568L15.4933 292.628L17.8606 293.653L20.2451 294.64L22.647 295.585L25.0665 296.485L27.5038 297.338L29.9588 298.138L32.4313 298.882L34.9211 299.566L37.4276 300.186L39.95 300.737L42.4873 301.215L45.0383 301.617L47.6017 301.938L50.1756 302.174L52.7582 302.322L55.3473 302.378L57.9404 302.34L60.5351 302.205L63.1286 301.97L65.7179 301.634L68.3 301.196L70.8717 300.655L73.4297 300.01L75.9709 299.263L78.4918 298.414L80.9892 297.464L83.4599 296.414L85.9007 295.268L88.3087 294.026L90.6808 292.692L93.0142 291.268L95.3062 289.757L97.5543 288.164L99.7561 286.491L101.91 284.743L104.013 282.925L106.064 281.04L108.062 279.094L110.005 277.092L111.892 275.038L113.723 272.938L115.497 270.797L117.214 268.62L118.874 266.414L120.477 264.183L122.025 261.933L123.518 259.67L124.957 257.398L126.343 255.124L127.678 252.852L128.965 250.587L130.205 248.335L131.4 246.1L132.554 243.886L133.668 241.697L134.745 239.538L135.789 237.413L136.802 235.325L137.788 233.276L138.749 231.27L139.69 229.309L140.613 227.396L141.521 225.531L142.419 223.718L143.308 221.956L144.193 220.246L145.075 218.589L145.959 216.985L146.847 215.434L147.741 213.935L148.644 212.487L149.559 211.089L150.487 209.74L151.43 208.437L152.39 207.179L153.368 205.964L154.367 204.789L155.386 203.653L156.427 202.552L157.491 201.484L158.577 200.445L159.687 199.434L160.819 198.447L161.974 197.48L163.151 196.532L164.35 195.598L165.57 194.676L166.809 193.762L168.066 192.854L169.34 191.949L170.63 191.043L171.933 190.135L173.249 189.221L174.576 188.3L175.912 187.369L177.256 186.427L178.606 185.471L179.961 184.501L181.319 183.514L182.681 182.511L184.045 181.49L185.41 180.449L186.776 179.39L188.141 178.31L189.505 177.209L190.867 176.086L192.227 174.942L193.582 173.775L194.934 172.584L196.281 171.371L197.622 170.134L198.957 168.872L200.285 167.587L201.606 166.277L202.918 164.942L204.223 163.582L205.518 162.197L206.803 160.787L208.079 159.352L209.344 157.891L210.598 156.405L211.841 154.894L213.071 153.357L214.289 151.794L215.494 150.205L216.685 148.591L217.862 146.951L219.024 145.285L220.17 143.593L221.299 141.875L222.412 140.132L223.506 138.363L224.581 136.568L225.636 134.747L226.67 132.901L227.681 131.03L228.669 129.133L229.633 127.211L230.57 125.265L231.48 123.294L232.361 121.299L233.211 119.281L234.029 117.24L234.814 115.177L235.563 113.091L236.275 110.985L236.949 108.858L237.582 106.713L238.172 104.549L238.719 102.367L239.22 100.17L239.673 97.958L240.077 95.7325L240.429 93.4951L240.729 91.2471L240.973 88.9904L241.161 86.7266L241.291 84.4574L241.362 82.1849L241.371 79.9109L241.318 77.6374L241.2 75.3667L241.018 73.1009L240.769 70.8423L240.453 68.593L240.069 66.3554L239.615 64.1319L239.093 61.9249L238.5 59.7368L237.837 57.57L237.104 55.4269L236.3 53.3099L235.426 51.2216L234.482 49.1642L233.468 47.1402L232.384 45.152L231.232 43.2019L230.012 41.2921L228.726 39.4246L227.375 37.6013L225.96 35.8239L224.485 34.094L222.95 32.4129L221.36 30.7816L219.715 29.2011L218.02 27.672L216.277 26.1946L214.489 24.769L212.661 23.3951L210.795 22.0724L208.895 20.8001L206.965 19.5772L205.008 18.4025L203.029 17.2743L201.031 16.1908L199.017 15.15L196.993 14.1494L194.96 13.1866L192.923 12.2587L190.886 11.3627L188.85 10.4954L186.82 9.65362L184.798 8.83382L182.787 8.03247L180.79 7.24593L178.808 6.47053L176.843 5.7026L174.897 4.93843L172.972 4.17441L171.068 3.40698L169.186 2.63269L167.327 1.84823L165.491 1.05049L163.677 0.23651L161.885 -0.596391L160.114 -1.45066L158.364 -2.32845L156.634 -3.23159L154.92 -4.16158L153.223 -5.11959L151.54 -6.10638L149.868 -7.12233L148.207 -8.16744L146.552 -9.24127L144.902 -10.3431L143.254 -11.4719L141.607 -12.6267L139.956 -13.8063L138.301 -15.0094L136.639 -16.2344L134.967 -17.4795L133.285 -18.7429L131.588 -20.0224L129.876 -21.3158L128.147 -22.6204L126.398 -23.9336L124.628 -25.2524L122.836 -26.5738L121.02 -27.8946L119.179 -29.2113L117.311 -30.5205L115.416 -31.8186L113.492 -33.102L111.54 -34.3672L109.559 -35.6104L107.548 -36.8283L105.508 -38.0172L103.439 -39.1741L101.34 -40.2957L99.2135 -41.3793L97.0589 -42.4223L94.8774 -43.4225L92.6697 -44.3778L90.437 -45.2859L88.1803 -46.1447L85.9008 -46.9522L83.5997 -47.7064L81.2785 -48.4052L78.9387 -49.0469L76.5817 -49.6297L74.2092 -50.1519L71.823 -50.612L69.4248 -51.0085L67.0164 -51.3403L64.5997 -51.6062L62.1765 -51.8053L59.749 -51.9367L57.319 -52L54.8884 -51.9947L52.4593 -51.9205L50.0335 -51.7773L47.6131 -51.5655L45.1999 -51.2851L42.7957 -50.9368L40.4023 -50.5211L38.0215 -50.039L35.6549 -49.4914L33.3042 -48.8794L30.9706 -48.2044L28.6558 -47.4677L26.3608 -46.6709L24.0871 -45.8157L21.8356 -44.9037L19.6073 -43.9369L17.4031 -42.9169L15.2238 -41.8459L13.0701 -40.7257L10.9426 -39.5583L8.84166 -38.3456L6.76776 -37.0898L4.72121 -35.7926L2.70225 -34.4561L0.711073 -33.082L-1.25221 -31.6721L-3.18752 -30.2282L-5.09483 -28.7518L-6.97412 -27.2445L-8.82536 -25.7078L-10.6486 -24.143L-12.4437 -22.5513L-14.2108 -20.9337L-15.9496 -19.2911L-17.6598 -17.6242L-19.3409 -15.9332L-20.9923 -14.2184L-22.6131 -12.4798L-24.2023 -10.7172L-25.7589 -8.93041L-27.2814 -7.11905L-28.7685 -5.28272L-30.2185 -3.42101L-31.6297 -1.53347L-33.0002 0.380311L-34.3283 2.32067L-35.6119 4.28788L-36.849 6.28211L-38.0378 8.30338L-39.1763 10.3516L-40.2626 12.4264L-41.2949 14.5273L-42.2718 16.6537L-43.1918 18.8045L-44.0536 20.9788L-44.8566 23.175L-45.6001 25.3915L-46.2839 27.6265L-46.9082 29.8779L-47.4737 32.1434L-47.9814 34.4206L-48.4321 36.7071L-48.8274 39.0007L-49.1685 41.299L-49.4573 43.5996L-49.6954 45.9003L-49.885 48.1989L-50.0283 50.4932L-50.1276 52.7811L-50.1855 55.0606L-50.2048 57.3299L-50.1883 59.5871L-50.139 61.8306L-50.06 64.0588L-49.9546 66.2704L-49.8262 68.464L-49.678 70.6387L-49.5137 72.7934L-49.3368 74.9275L-49.1509 77.0404L-48.9595 79.1317L-48.7661 81.2011L-48.5744 83.2488L-48.3877 85.2748L-48.2096 87.2796L-48.0434 89.2637L-47.8921 91.2279L-47.759 93.173L-47.6469 95.1003L-47.5585 97.0109L-47.4965 98.9062L-47.4631 100.788L-47.4605 102.658L-47.4904 104.518L-47.5546 106.369L-47.6542 108.215L-47.7903 110.056L-47.9637 111.896L-48.1747 113.736L-48.4235 115.579L-48.7097 117.426L-49.0329 119.281Z" fill="#E94336"/>
</svg>
