<svg width="242" height="303" viewBox="0 0 242 303" fill="none" xmlns="http://www.w3.org/2000/svg">
<path fill-rule="evenodd" clip-rule="evenodd" d="M290.404 119.281L290.763 121.146L291.157 123.021L291.584 124.911L292.043 126.816L292.531 128.739L293.045 130.681L293.583 132.644L294.143 134.63L294.72 136.639L295.313 138.673L295.918 140.733L296.532 142.82L297.151 144.935L297.774 147.078L298.395 149.25L299.013 151.45L299.622 153.679L300.22 155.937L300.803 158.223L301.368 160.537L301.91 162.878L302.425 165.245L302.911 167.637L303.363 170.053L303.778 172.491L304.153 174.949L304.483 177.426L304.766 179.92L304.999 182.428L305.178 184.949L305.302 187.48L305.367 190.019L305.372 192.564L305.314 195.111L305.192 197.659L305.005 200.206L304.752 202.748L304.43 205.283L304.04 207.81L303.581 210.324L303.052 212.825L302.452 215.309L301.783 217.775L301.043 220.219L300.234 222.64L299.355 225.036L298.409 227.405L297.394 229.745L296.314 232.054L295.168 234.331L293.958 236.575L292.687 238.783L291.354 240.955L289.964 243.091L288.516 245.189L287.014 247.249L285.459 249.27L283.853 251.252L282.199 253.195L280.499 255.099L278.755 256.964L276.969 258.791L275.143 260.579L273.28 262.329L271.381 264.043L269.448 265.72L267.484 267.361L265.49 268.968L263.467 270.54L261.418 272.08L259.344 273.586L257.246 275.061L255.126 276.505L252.985 277.919L250.823 279.303L248.642 280.659L246.442 281.985L244.224 283.283L241.988 284.553L239.736 285.795L237.467 287.008L235.182 288.193L232.88 289.348L230.562 290.474L228.228 291.568L225.878 292.628L223.511 293.653L221.126 294.64L218.724 295.585L216.305 296.485L213.867 297.338L211.412 298.138L208.94 298.882L206.45 299.566L203.944 300.186L201.421 300.737L198.884 301.215L196.333 301.617L193.769 301.938L191.196 302.174L188.613 302.322L186.024 302.378L183.431 302.34L180.836 302.205L178.242 301.97L175.653 301.634L173.071 301.196L170.499 300.655L167.941 300.01L165.4 299.263L162.879 298.414L160.382 297.464L157.911 296.414L155.47 295.268L153.062 294.026L150.69 292.692L148.357 291.268L146.065 289.757L143.817 288.164L141.615 286.491L139.461 284.743L137.358 282.925L135.307 281.04L133.309 279.094L131.366 277.092L129.479 275.038L127.648 272.938L125.874 270.797L124.157 268.62L122.497 266.414L120.894 264.183L119.346 261.933L117.853 259.67L116.415 257.398L115.028 255.124L113.693 252.852L112.406 250.587L111.166 248.335L109.971 246.1L108.817 243.886L107.704 241.697L106.626 239.538L105.582 237.413L104.569 235.325L103.583 233.276L102.622 231.27L101.681 229.309L100.758 227.396L99.8496 225.531L98.9523 223.718L98.0629 221.956L97.1784 220.246L96.2957 218.589L95.4119 216.985L94.5242 215.434L93.63 213.935L92.7267 212.487L91.8122 211.089L90.8844 209.74L89.9413 208.437L88.9812 207.179L88.0027 205.964L87.0043 204.789L85.985 203.653L84.9439 202.552L83.8803 201.484L82.794 200.445L81.6845 199.434L80.5521 198.447L79.397 197.48L78.2197 196.532L77.0209 195.598L75.8015 194.676L74.5625 193.762L73.3052 192.854L72.031 191.949L70.7413 191.043L69.4376 190.135L68.1216 189.221L66.7948 188.3L65.4589 187.369L64.1152 186.427L62.7654 185.471L61.4105 184.501L60.0518 183.515L58.69 182.511L57.3262 181.49L55.961 180.449L54.5954 179.39L53.2301 178.31L51.866 177.209L50.5039 176.086L49.1446 174.942L47.7887 173.775L46.4371 172.584L45.0904 171.371L43.7493 170.134L42.4143 168.872L41.0862 167.587L39.7655 166.277L38.4528 164.942L37.1486 163.582L35.8534 162.197L34.5677 160.787L33.2921 159.352L32.0269 157.891L30.7728 156.405L29.5303 154.894L28.2997 153.357L27.0818 151.794L25.877 150.205L24.6859 148.591L23.5091 146.951L22.3473 145.285L21.2012 143.593L20.0716 141.875L18.9593 140.132L17.8652 138.363L16.7901 136.568L15.7351 134.747L14.7012 132.901L13.6897 131.03L12.7016 129.133L11.7383 127.211L10.801 125.265L9.89131 123.294L9.01052 121.299L8.1602 119.281L7.34192 117.24L6.55731 115.177L5.80803 113.091L5.09578 110.985L4.42229 108.858L3.78931 106.713L3.1986 104.549L2.65196 102.367L2.15117 100.17L1.69805 97.958L1.29438 95.7325L0.941955 93.4951L0.642551 91.2471L0.397904 88.9904L0.209711 86.7266L0.0796204 84.4574L0.00921419 82.1849L2.68322e-06 79.9109L0.0534114 77.6375L0.170771 75.3668L0.353309 73.101L0.60214 70.8423L0.918257 68.593L1.30253 66.3554L1.75568 64.1319L2.27833 61.9249L2.87091 59.7368L3.53376 57.57L4.26704 55.4269L5.07081 53.3099L5.94498 51.2216L6.88931 49.1642L7.90347 47.1402L8.98698 45.1521L10.1391 43.2019L11.359 41.2921L12.6452 39.4246L13.9964 37.6013L15.4108 35.8239L16.8863 34.094L18.4207 32.4129L20.0115 30.7816L21.656 29.2011L23.3513 27.672L25.0943 26.1946L26.8818 24.769L28.7103 23.3951L30.5763 22.0724L32.4762 20.8001L34.4064 19.5772L36.3629 18.4025L38.3422 17.2743L40.3403 16.1908L42.3536 15.15L44.3783 14.1495L46.4109 13.1866L48.4477 12.2587L50.4855 11.3627L52.5209 10.4954L54.551 9.65362L56.5728 8.83382L58.5837 8.03247L60.5812 7.24593L62.5633 6.47054L64.528 5.7026L66.4737 4.93843L68.3991 4.17441L70.303 3.40698L72.1849 2.63269L74.0441 1.84824L75.8806 1.05049L77.6945 0.236513L79.4863 -0.596388L81.2567 -1.45066L83.0067 -2.32844L84.7375 -3.23158L86.4507 -4.16158L88.148 -5.11959L89.8312 -6.10638L91.5026 -7.12233L93.1645 -8.16744L94.8191 -9.24127L96.469 -10.3431L98.1167 -11.4719L99.7645 -12.6267L101.415 -13.8063L103.07 -15.0094L104.732 -16.2344L106.404 -17.4795L108.087 -18.7429L109.783 -20.0224L111.495 -21.3158L113.224 -22.6204L114.973 -23.9336L116.743 -25.2524L118.535 -26.5738L120.351 -27.8946L122.192 -29.2113L124.06 -30.5205L125.955 -31.8186L127.879 -33.102L129.831 -34.3672L131.812 -35.6104L133.823 -36.8283L135.863 -38.0172L137.933 -39.1741L140.031 -40.2957L142.158 -41.3793L144.312 -42.4223L146.494 -43.4225L148.701 -44.3778L150.934 -45.2858L153.191 -46.1447L155.47 -46.9522L157.771 -47.7064L160.093 -48.4052L162.432 -49.0469L164.789 -49.6297L167.162 -50.1519L169.548 -50.612L171.946 -51.0085L174.355 -51.3403L176.771 -51.6062L179.195 -51.8053L181.622 -51.9367L184.052 -52L186.483 -51.9947L188.912 -51.9205L191.338 -51.7773L193.758 -51.5655L196.171 -51.2851L198.575 -50.9368L200.969 -50.5211L203.35 -50.039L205.716 -49.4914L208.067 -48.8794L210.4 -48.2044L212.715 -47.4677L215.01 -46.6709L217.284 -45.8157L219.536 -44.9037L221.764 -43.9369L223.968 -42.9169L226.147 -41.8459L228.301 -40.7257L230.429 -39.5583L232.529 -38.3456L234.603 -37.0898L236.65 -35.7926L238.669 -34.4561L240.66 -33.082L242.623 -31.6721L244.559 -30.2282L246.466 -28.7518L248.345 -27.2445L250.196 -25.7078L252.02 -24.143L253.815 -22.5512L255.582 -20.9337L257.321 -19.2911L259.031 -17.6242L260.712 -15.9332L262.363 -14.2184L263.984 -12.4798L265.573 -10.7172L267.13 -8.93041L268.653 -7.11905L270.14 -5.28272L271.59 -3.421L273.001 -1.53346L274.371 0.380316L275.699 2.32068L276.983 4.28789L278.22 6.28212L279.409 8.30339L280.547 10.3516L281.634 12.4264L282.666 14.5273L283.643 16.6537L284.563 18.8046L285.425 20.9788L286.228 23.175L286.971 25.3915L287.655 27.6265L288.279 29.8779L288.845 32.1434L289.352 34.4206L289.803 36.7072L290.198 39.0007L290.54 41.299L290.828 43.5996L291.066 45.9003L291.256 48.1989L291.399 50.4932L291.499 52.7811L291.557 55.0606L291.576 57.3299L291.559 59.5871L291.51 61.8306L291.431 64.0588L291.326 66.2704L291.197 68.464L291.049 70.6387L290.885 72.7934L290.708 74.9275L290.522 77.0404L290.331 79.1317L290.137 81.2011L289.945 83.2488L289.759 85.2748L289.581 87.2796L289.414 89.2637L289.263 91.2279L289.13 93.173L289.018 95.1003L288.93 97.0109L288.868 98.9063L288.834 100.788L288.832 102.658L288.862 104.518L288.926 106.369L289.025 108.215L289.161 110.056L289.335 111.896L289.546 113.736L289.795 115.579L290.081 117.426L290.404 119.281Z" fill="#FABB09"/>
</svg>
